<mxfile host="app.diagrams.net" modified="2024-05-12T08:19:32.870Z" agent="Mozilla/5.0 (Windows NT 10.0; Win64; x64) AppleWebKit/537.36 (KHTML, like Gecko) Chrome/124.0.0.0 Safari/537.36" etag="o5PK1R665xActn0Giwit" version="24.4.0" type="device">
  <diagram id="R2lEEEUBdFMjLlhIrx00" name="Page-1">
    <mxGraphModel dx="1562" dy="985" grid="1" gridSize="10" guides="1" tooltips="1" connect="1" arrows="1" fold="1" page="1" pageScale="1" pageWidth="850" pageHeight="1100" math="0" shadow="0" extFonts="Permanent Marker^https://fonts.googleapis.com/css?family=Permanent+Marker">
      <root>
        <mxCell id="0" />
        <mxCell id="1" parent="0" />
        <mxCell id="Lao-rUgw4XaIn2fH0C6R-1" value="Pnome" style="rounded=0;whiteSpace=wrap;html=1;fontSize=10;" parent="1" vertex="1">
          <mxGeometry x="80" y="40" width="40" height="20" as="geometry" />
        </mxCell>
        <mxCell id="Lao-rUgw4XaIn2fH0C6R-2" value="Unome" style="rounded=0;whiteSpace=wrap;html=1;fontSize=10;" parent="1" vertex="1">
          <mxGeometry x="120" y="40" width="40" height="20" as="geometry" />
        </mxCell>
        <mxCell id="Lao-rUgw4XaIn2fH0C6R-3" value="nif" style="rounded=0;whiteSpace=wrap;html=1;fontSize=10;fontStyle=4" parent="1" vertex="1">
          <mxGeometry x="160" y="40" width="30" height="20" as="geometry" />
        </mxCell>
        <mxCell id="Lao-rUgw4XaIn2fH0C6R-4" value="número" style="rounded=0;whiteSpace=wrap;html=1;fontSize=10;" parent="1" vertex="1">
          <mxGeometry x="339.5" y="40" width="50" height="20" as="geometry" />
        </mxCell>
        <mxCell id="Lao-rUgw4XaIn2fH0C6R-5" value="rua" style="rounded=0;whiteSpace=wrap;html=1;fontSize=10;" parent="1" vertex="1">
          <mxGeometry x="310" y="40" width="30" height="20" as="geometry" />
        </mxCell>
        <mxCell id="Lao-rUgw4XaIn2fH0C6R-6" value="localidade" style="rounded=0;whiteSpace=wrap;html=1;fontSize=10;" parent="1" vertex="1">
          <mxGeometry x="249" y="40" width="60" height="20" as="geometry" />
        </mxCell>
        <mxCell id="Lao-rUgw4XaIn2fH0C6R-7" value="cod_postal" style="rounded=0;whiteSpace=wrap;html=1;fontSize=10;" parent="1" vertex="1">
          <mxGeometry x="189" y="40" width="60" height="20" as="geometry" />
        </mxCell>
        <mxCell id="Lao-rUgw4XaIn2fH0C6R-8" value="data_nascimento" style="rounded=0;whiteSpace=wrap;html=1;fontSize=10;" parent="1" vertex="1">
          <mxGeometry x="390" y="40" width="90" height="20" as="geometry" />
        </mxCell>
        <mxCell id="Lao-rUgw4XaIn2fH0C6R-9" value="sexo" style="rounded=0;whiteSpace=wrap;html=1;fontSize=10;" parent="1" vertex="1">
          <mxGeometry x="480" y="40" width="30" height="20" as="geometry" />
        </mxCell>
        <mxCell id="Lao-rUgw4XaIn2fH0C6R-10" value="Pessoa" style="text;strokeColor=none;align=center;fillColor=none;html=1;verticalAlign=middle;whiteSpace=wrap;rounded=0;fontSize=10;" parent="1" vertex="1">
          <mxGeometry x="81" y="20" width="30" height="20" as="geometry" />
        </mxCell>
        <mxCell id="Lao-rUgw4XaIn2fH0C6R-12" value="nif" style="rounded=0;whiteSpace=wrap;html=1;fontSize=10;fontStyle=4" parent="1" vertex="1">
          <mxGeometry x="80" y="250" width="30" height="20" as="geometry" />
        </mxCell>
        <mxCell id="Lao-rUgw4XaIn2fH0C6R-13" value="num_func" style="rounded=0;whiteSpace=wrap;html=1;fontSize=10;" parent="1" vertex="1">
          <mxGeometry x="110" y="250" width="50" height="20" as="geometry" />
        </mxCell>
        <mxCell id="Lao-rUgw4XaIn2fH0C6R-14" value="Funcionário" style="text;strokeColor=none;align=center;fillColor=none;html=1;verticalAlign=middle;whiteSpace=wrap;rounded=0;fontSize=10;" parent="1" vertex="1">
          <mxGeometry x="80" y="230" width="50" height="20" as="geometry" />
        </mxCell>
        <mxCell id="Lao-rUgw4XaIn2fH0C6R-15" value="nif" style="rounded=0;whiteSpace=wrap;html=1;fontSize=10;fontStyle=4" parent="1" vertex="1">
          <mxGeometry x="550" y="250" width="30" height="20" as="geometry" />
        </mxCell>
        <mxCell id="Lao-rUgw4XaIn2fH0C6R-16" value="num_conta" style="rounded=0;whiteSpace=wrap;html=1;fontSize=10;" parent="1" vertex="1">
          <mxGeometry x="580" y="250" width="60" height="20" as="geometry" />
        </mxCell>
        <mxCell id="Lao-rUgw4XaIn2fH0C6R-17" value="Cliente" style="text;strokeColor=none;align=center;fillColor=none;html=1;verticalAlign=middle;whiteSpace=wrap;rounded=0;fontSize=10;" parent="1" vertex="1">
          <mxGeometry x="550" y="230" width="30" height="20" as="geometry" />
        </mxCell>
        <mxCell id="Lao-rUgw4XaIn2fH0C6R-18" value="num_telem" style="rounded=0;whiteSpace=wrap;html=1;fontSize=10;" parent="1" vertex="1">
          <mxGeometry x="640" y="250" width="60" height="20" as="geometry" />
        </mxCell>
        <mxCell id="Lao-rUgw4XaIn2fH0C6R-19" value="" style="endArrow=classic;html=1;rounded=0;entryX=0.25;entryY=1;entryDx=0;entryDy=0;exitX=0;exitY=0.5;exitDx=0;exitDy=0;" parent="1" source="Lao-rUgw4XaIn2fH0C6R-12" target="Lao-rUgw4XaIn2fH0C6R-3" edge="1">
          <mxGeometry width="50" height="50" relative="1" as="geometry">
            <mxPoint x="230" y="240" as="sourcePoint" />
            <mxPoint x="280" y="190" as="targetPoint" />
            <Array as="points">
              <mxPoint x="70" y="260" />
              <mxPoint x="70" y="150" />
              <mxPoint x="70" y="90" />
              <mxPoint x="168" y="90" />
            </Array>
          </mxGeometry>
        </mxCell>
        <mxCell id="Lao-rUgw4XaIn2fH0C6R-20" value="" style="endArrow=classic;html=1;rounded=0;entryX=0.5;entryY=1;entryDx=0;entryDy=0;exitX=0;exitY=0.5;exitDx=0;exitDy=0;" parent="1" source="Lao-rUgw4XaIn2fH0C6R-15" target="Lao-rUgw4XaIn2fH0C6R-3" edge="1">
          <mxGeometry width="50" height="50" relative="1" as="geometry">
            <mxPoint x="175" y="180" as="sourcePoint" />
            <mxPoint x="240" y="170" as="targetPoint" />
            <Array as="points">
              <mxPoint x="500" y="260" />
              <mxPoint x="500" y="150" />
              <mxPoint x="500" y="90" />
              <mxPoint x="175" y="90" />
            </Array>
          </mxGeometry>
        </mxCell>
        <mxCell id="Lao-rUgw4XaIn2fH0C6R-21" value="nif" style="rounded=0;whiteSpace=wrap;html=1;fontSize=10;fontStyle=4" parent="1" vertex="1">
          <mxGeometry x="81" y="440" width="30" height="20" as="geometry" />
        </mxCell>
        <mxCell id="Lao-rUgw4XaIn2fH0C6R-23" value="nif" style="rounded=0;whiteSpace=wrap;html=1;fontSize=10;fontStyle=4" parent="1" vertex="1">
          <mxGeometry x="190" y="440" width="30" height="20" as="geometry" />
        </mxCell>
        <mxCell id="Lao-rUgw4XaIn2fH0C6R-24" value="data_fim" style="rounded=0;whiteSpace=wrap;html=1;fontSize=10;" parent="1" vertex="1">
          <mxGeometry x="220" y="440" width="50" height="20" as="geometry" />
        </mxCell>
        <mxCell id="Lao-rUgw4XaIn2fH0C6R-25" value="" style="endArrow=classic;html=1;rounded=0;entryX=0.329;entryY=1.001;entryDx=0;entryDy=0;exitX=0;exitY=0.5;exitDx=0;exitDy=0;entryPerimeter=0;" parent="1" source="Lao-rUgw4XaIn2fH0C6R-21" target="Lao-rUgw4XaIn2fH0C6R-12" edge="1">
          <mxGeometry width="50" height="50" relative="1" as="geometry">
            <mxPoint x="130" y="390" as="sourcePoint" />
            <mxPoint x="83.71999999999991" y="270.98" as="targetPoint" />
            <Array as="points">
              <mxPoint x="40" y="450" />
              <mxPoint x="40" y="320" />
              <mxPoint x="90" y="320" />
            </Array>
          </mxGeometry>
        </mxCell>
        <mxCell id="Lao-rUgw4XaIn2fH0C6R-26" value="Efetivo" style="text;strokeColor=none;align=center;fillColor=none;html=1;verticalAlign=middle;whiteSpace=wrap;rounded=0;fontSize=10;" parent="1" vertex="1">
          <mxGeometry x="81" y="420" width="29" height="20" as="geometry" />
        </mxCell>
        <mxCell id="Lao-rUgw4XaIn2fH0C6R-27" value="" style="endArrow=classic;html=1;rounded=0;exitX=0.25;exitY=1;exitDx=0;exitDy=0;entryX=0.659;entryY=1.024;entryDx=0;entryDy=0;entryPerimeter=0;" parent="1" source="Lao-rUgw4XaIn2fH0C6R-23" target="Lao-rUgw4XaIn2fH0C6R-12" edge="1">
          <mxGeometry width="50" height="50" relative="1" as="geometry">
            <mxPoint x="130" y="370" as="sourcePoint" />
            <mxPoint x="97.39999999999986" y="271.41999999999985" as="targetPoint" />
            <Array as="points">
              <mxPoint x="198" y="510" />
              <mxPoint x="420" y="510" />
              <mxPoint x="420" y="320" />
              <mxPoint x="100" y="320" />
            </Array>
          </mxGeometry>
        </mxCell>
        <mxCell id="Lao-rUgw4XaIn2fH0C6R-28" value="Estagiário" style="text;strokeColor=none;align=center;fillColor=none;html=1;verticalAlign=middle;whiteSpace=wrap;rounded=0;fontSize=10;" parent="1" vertex="1">
          <mxGeometry x="191" y="420" width="40" height="20" as="geometry" />
        </mxCell>
        <mxCell id="Lao-rUgw4XaIn2fH0C6R-29" value="id" style="rounded=0;whiteSpace=wrap;html=1;fontSize=10;fontStyle=4" parent="1" vertex="1">
          <mxGeometry x="80" y="540" width="20" height="20" as="geometry" />
        </mxCell>
        <mxCell id="Lao-rUgw4XaIn2fH0C6R-30" value="especificação" style="rounded=0;whiteSpace=wrap;html=1;fontSize=10;" parent="1" vertex="1">
          <mxGeometry x="100" y="540" width="70" height="20" as="geometry" />
        </mxCell>
        <mxCell id="Lao-rUgw4XaIn2fH0C6R-31" value="rua" style="rounded=0;whiteSpace=wrap;html=1;fontSize=10;" parent="1" vertex="1">
          <mxGeometry x="341" y="540" width="29" height="20" as="geometry" />
        </mxCell>
        <mxCell id="Lao-rUgw4XaIn2fH0C6R-32" value="localidade" style="rounded=0;whiteSpace=wrap;html=1;fontSize=10;" parent="1" vertex="1">
          <mxGeometry x="280" y="540" width="61" height="20" as="geometry" />
        </mxCell>
        <mxCell id="Lao-rUgw4XaIn2fH0C6R-33" value="cod_postal" style="rounded=0;whiteSpace=wrap;html=1;fontSize=10;" parent="1" vertex="1">
          <mxGeometry x="220" y="540" width="60" height="20" as="geometry" />
        </mxCell>
        <mxCell id="Lao-rUgw4XaIn2fH0C6R-34" value="número" style="rounded=0;whiteSpace=wrap;html=1;fontSize=10;" parent="1" vertex="1">
          <mxGeometry x="170" y="540" width="50" height="20" as="geometry" />
        </mxCell>
        <mxCell id="Lao-rUgw4XaIn2fH0C6R-35" value="Estabelecimento" style="text;strokeColor=none;align=center;fillColor=none;html=1;verticalAlign=middle;whiteSpace=wrap;rounded=0;fontSize=10;" parent="1" vertex="1">
          <mxGeometry x="81" y="520" width="69" height="20" as="geometry" />
        </mxCell>
        <mxCell id="Lao-rUgw4XaIn2fH0C6R-36" value="designação" style="rounded=0;whiteSpace=wrap;html=1;fontSize=10;fontStyle=4" parent="1" vertex="1">
          <mxGeometry x="80" y="620" width="60" height="20" as="geometry" />
        </mxCell>
        <mxCell id="Lao-rUgw4XaIn2fH0C6R-37" value="Especialidade" style="text;strokeColor=none;align=center;fillColor=none;html=1;verticalAlign=middle;whiteSpace=wrap;rounded=0;fontSize=10;" parent="1" vertex="1">
          <mxGeometry x="80" y="600" width="60" height="20" as="geometry" />
        </mxCell>
        <mxCell id="Lao-rUgw4XaIn2fH0C6R-40" value="Tipo_serviço" style="text;strokeColor=none;align=center;fillColor=none;html=1;verticalAlign=middle;whiteSpace=wrap;rounded=0;fontSize=10;" parent="1" vertex="1">
          <mxGeometry x="513" y="840" width="50" height="20" as="geometry" />
        </mxCell>
        <mxCell id="Lao-rUgw4XaIn2fH0C6R-41" value="nif_funcionário" style="rounded=0;whiteSpace=wrap;html=1;fontSize=10;fontStyle=4" parent="1" vertex="1">
          <mxGeometry x="70" y="370" width="80" height="20" as="geometry" />
        </mxCell>
        <mxCell id="Lao-rUgw4XaIn2fH0C6R-42" value="nif_cliente" style="rounded=0;whiteSpace=wrap;html=1;fontSize=10;fontStyle=4" parent="1" vertex="1">
          <mxGeometry x="150" y="370" width="60" height="20" as="geometry" />
        </mxCell>
        <mxCell id="Lao-rUgw4XaIn2fH0C6R-43" value="data" style="rounded=0;whiteSpace=wrap;html=1;fontSize=10;fontStyle=4" parent="1" vertex="1">
          <mxGeometry x="210" y="370" width="40" height="20" as="geometry" />
        </mxCell>
        <mxCell id="Lao-rUgw4XaIn2fH0C6R-44" value="n_estrelas" style="rounded=0;whiteSpace=wrap;html=1;fontSize=10;" parent="1" vertex="1">
          <mxGeometry x="250" y="370" width="60" height="20" as="geometry" />
        </mxCell>
        <mxCell id="Lao-rUgw4XaIn2fH0C6R-45" value="comentários" style="rounded=0;whiteSpace=wrap;html=1;fontSize=10;" parent="1" vertex="1">
          <mxGeometry x="310" y="370" width="70" height="20" as="geometry" />
        </mxCell>
        <mxCell id="Lao-rUgw4XaIn2fH0C6R-46" value="Avaliação" style="text;strokeColor=none;align=center;fillColor=none;html=1;verticalAlign=middle;whiteSpace=wrap;rounded=0;fontSize=10;" parent="1" vertex="1">
          <mxGeometry x="70" y="350" width="40" height="20" as="geometry" />
        </mxCell>
        <mxCell id="Lao-rUgw4XaIn2fH0C6R-47" value="nif_funcionário" style="rounded=0;whiteSpace=wrap;html=1;fontSize=10;fontStyle=4" parent="1" vertex="1">
          <mxGeometry x="81" y="860" width="80" height="20" as="geometry" />
        </mxCell>
        <mxCell id="Lao-rUgw4XaIn2fH0C6R-48" value="nif_cliente" style="rounded=0;whiteSpace=wrap;html=1;fontSize=10;fontStyle=4" parent="1" vertex="1">
          <mxGeometry x="161" y="860" width="60" height="20" as="geometry" />
        </mxCell>
        <mxCell id="Lao-rUgw4XaIn2fH0C6R-49" value="Marcação" style="text;strokeColor=none;align=center;fillColor=none;html=1;verticalAlign=middle;whiteSpace=wrap;rounded=0;fontSize=10;" parent="1" vertex="1">
          <mxGeometry x="81.5" y="840" width="41.5" height="20" as="geometry" />
        </mxCell>
        <mxCell id="Lao-rUgw4XaIn2fH0C6R-50" value="data_marcação" style="rounded=0;whiteSpace=wrap;html=1;fontSize=10;fontStyle=4" parent="1" vertex="1">
          <mxGeometry x="221" y="860" width="80" height="20" as="geometry" />
        </mxCell>
        <mxCell id="Lao-rUgw4XaIn2fH0C6R-51" value="data_pedido" style="rounded=0;whiteSpace=wrap;html=1;fontSize=10;" parent="1" vertex="1">
          <mxGeometry x="301" y="860" width="70" height="20" as="geometry" />
        </mxCell>
        <mxCell id="Lao-rUgw4XaIn2fH0C6R-52" value="nif_efetivo" style="rounded=0;whiteSpace=wrap;html=1;fontSize=10;fontStyle=4" parent="1" vertex="1">
          <mxGeometry x="79.5" y="760" width="80" height="20" as="geometry" />
        </mxCell>
        <mxCell id="Lao-rUgw4XaIn2fH0C6R-53" value="salário" style="rounded=0;whiteSpace=wrap;html=1;fontSize=10;fontStyle=4" parent="1" vertex="1">
          <mxGeometry x="159.5" y="760" width="50" height="20" as="geometry" />
        </mxCell>
        <mxCell id="Lao-rUgw4XaIn2fH0C6R-54" value="descrição" style="rounded=0;whiteSpace=wrap;html=1;fontSize=10;" parent="1" vertex="1">
          <mxGeometry x="209.5" y="760" width="60" height="20" as="geometry" />
        </mxCell>
        <mxCell id="Lao-rUgw4XaIn2fH0C6R-55" value="data_início" style="rounded=0;whiteSpace=wrap;html=1;fontSize=10;" parent="1" vertex="1">
          <mxGeometry x="269.5" y="760" width="60" height="20" as="geometry" />
        </mxCell>
        <mxCell id="Lao-rUgw4XaIn2fH0C6R-56" value="data_fim" style="rounded=0;whiteSpace=wrap;html=1;fontSize=10;" parent="1" vertex="1">
          <mxGeometry x="329.5" y="760" width="60" height="20" as="geometry" />
        </mxCell>
        <mxCell id="Lao-rUgw4XaIn2fH0C6R-58" value="Contrato" style="text;strokeColor=none;align=center;fillColor=none;html=1;verticalAlign=middle;whiteSpace=wrap;rounded=0;fontSize=10;" parent="1" vertex="1">
          <mxGeometry x="80" y="740" width="39.5" height="20" as="geometry" />
        </mxCell>
        <mxCell id="Lao-rUgw4XaIn2fH0C6R-59" value="sexo" style="rounded=0;whiteSpace=wrap;html=1;fontSize=10;fontStyle=4" parent="1" vertex="1">
          <mxGeometry x="510" y="860" width="30" height="20" as="geometry" />
        </mxCell>
        <mxCell id="Lao-rUgw4XaIn2fH0C6R-60" value="designação" style="rounded=0;whiteSpace=wrap;html=1;fontSize=10;fontStyle=4" parent="1" vertex="1">
          <mxGeometry x="540" y="860" width="60" height="20" as="geometry" />
        </mxCell>
        <mxCell id="Lao-rUgw4XaIn2fH0C6R-61" value="nome" style="rounded=0;whiteSpace=wrap;html=1;fontSize=10;fontStyle=4" parent="1" vertex="1">
          <mxGeometry x="550" y="950" width="50" height="20" as="geometry" />
        </mxCell>
        <mxCell id="Lao-rUgw4XaIn2fH0C6R-62" value="preço" style="rounded=0;whiteSpace=wrap;html=1;fontSize=10;" parent="1" vertex="1">
          <mxGeometry x="600" y="950" width="40" height="20" as="geometry" />
        </mxCell>
        <mxCell id="Lao-rUgw4XaIn2fH0C6R-63" value="Serviço" style="text;strokeColor=none;align=center;fillColor=none;html=1;verticalAlign=middle;whiteSpace=wrap;rounded=0;fontSize=10;" parent="1" vertex="1">
          <mxGeometry x="553" y="930" width="27" height="20" as="geometry" />
        </mxCell>
        <mxCell id="Lao-rUgw4XaIn2fH0C6R-65" value="nif_gerente" style="rounded=0;whiteSpace=wrap;html=1;fontSize=10;" parent="1" vertex="1">
          <mxGeometry x="370" y="540" width="60" height="20" as="geometry" />
        </mxCell>
        <mxCell id="Lao-rUgw4XaIn2fH0C6R-66" value="data_início_gerente" style="rounded=0;whiteSpace=wrap;html=1;fontSize=10;" parent="1" vertex="1">
          <mxGeometry x="430" y="540" width="100" height="20" as="geometry" />
        </mxCell>
        <mxCell id="Lao-rUgw4XaIn2fH0C6R-67" value="num_estabelecimento" style="rounded=0;whiteSpace=wrap;html=1;fontSize=10;" parent="1" vertex="1">
          <mxGeometry x="160" y="250" width="110" height="20" as="geometry" />
        </mxCell>
        <mxCell id="Lao-rUgw4XaIn2fH0C6R-68" value="Tem" style="text;strokeColor=none;align=center;fillColor=none;html=1;verticalAlign=middle;whiteSpace=wrap;rounded=0;fontSize=10;" parent="1" vertex="1">
          <mxGeometry x="80" y="660" width="20" height="20" as="geometry" />
        </mxCell>
        <mxCell id="Lao-rUgw4XaIn2fH0C6R-69" value="nif_efetivo" style="rounded=0;whiteSpace=wrap;html=1;fontSize=10;fontStyle=4" parent="1" vertex="1">
          <mxGeometry x="80" y="680" width="70" height="20" as="geometry" />
        </mxCell>
        <mxCell id="Lao-rUgw4XaIn2fH0C6R-70" value="designação_especialidade" style="rounded=0;whiteSpace=wrap;html=1;fontSize=10;fontStyle=4" parent="1" vertex="1">
          <mxGeometry x="150" y="680" width="130" height="20" as="geometry" />
        </mxCell>
        <mxCell id="Lao-rUgw4XaIn2fH0C6R-74" value="sexo" style="rounded=0;whiteSpace=wrap;html=1;fontSize=10;fontStyle=4" parent="1" vertex="1">
          <mxGeometry x="301.5" y="950" width="40" height="20" as="geometry" />
        </mxCell>
        <mxCell id="Lao-rUgw4XaIn2fH0C6R-75" value="designação_tipo_serviço" style="rounded=0;whiteSpace=wrap;html=1;fontSize=10;fontStyle=4" parent="1" vertex="1">
          <mxGeometry x="341.5" y="950" width="130" height="20" as="geometry" />
        </mxCell>
        <mxCell id="Lao-rUgw4XaIn2fH0C6R-77" value="Inclui" style="text;strokeColor=none;align=center;fillColor=none;html=1;verticalAlign=middle;whiteSpace=wrap;rounded=0;fontSize=10;" parent="1" vertex="1">
          <mxGeometry x="81.5" y="930" width="30" height="20" as="geometry" />
        </mxCell>
        <mxCell id="Lao-rUgw4XaIn2fH0C6R-78" value="data_marcação" style="rounded=0;whiteSpace=wrap;html=1;fontSize=10;fontStyle=4" parent="1" vertex="1">
          <mxGeometry x="81.5" y="950" width="80" height="20" as="geometry" />
        </mxCell>
        <mxCell id="Lao-rUgw4XaIn2fH0C6R-79" value="nif_funcionário" style="rounded=0;whiteSpace=wrap;html=1;fontSize=10;fontStyle=4" parent="1" vertex="1">
          <mxGeometry x="345" y="250" width="70" height="20" as="geometry" />
        </mxCell>
        <mxCell id="Lao-rUgw4XaIn2fH0C6R-80" value="num_telem" style="rounded=0;whiteSpace=wrap;html=1;fontSize=10;fontStyle=4" parent="1" vertex="1">
          <mxGeometry x="415" y="250" width="60" height="20" as="geometry" />
        </mxCell>
        <mxCell id="Lao-rUgw4XaIn2fH0C6R-82" value="Nums_tele_funcionário" style="text;strokeColor=none;align=center;fillColor=none;html=1;verticalAlign=middle;whiteSpace=wrap;rounded=0;fontSize=10;" parent="1" vertex="1">
          <mxGeometry x="345" y="230" width="100" height="20" as="geometry" />
        </mxCell>
        <mxCell id="Gj7JsDhDFi42uOvpA1KM-1" value="" style="endArrow=classic;html=1;rounded=0;entryX=0.948;entryY=1.076;entryDx=0;entryDy=0;exitX=0.25;exitY=1;exitDx=0;exitDy=0;entryPerimeter=0;" parent="1" source="Lao-rUgw4XaIn2fH0C6R-65" target="Lao-rUgw4XaIn2fH0C6R-21" edge="1">
          <mxGeometry width="50" height="50" relative="1" as="geometry">
            <mxPoint x="260" y="430" as="sourcePoint" />
            <mxPoint x="310" y="380" as="targetPoint" />
            <Array as="points">
              <mxPoint x="385" y="580" />
              <mxPoint x="60" y="580" />
              <mxPoint x="60" y="510" />
              <mxPoint x="110" y="510" />
            </Array>
          </mxGeometry>
        </mxCell>
        <mxCell id="Gj7JsDhDFi42uOvpA1KM-2" value="" style="endArrow=classic;html=1;rounded=0;exitX=0.5;exitY=1;exitDx=0;exitDy=0;entryX=0.5;entryY=1;entryDx=0;entryDy=0;" parent="1" source="Lao-rUgw4XaIn2fH0C6R-67" target="Lao-rUgw4XaIn2fH0C6R-29" edge="1">
          <mxGeometry width="50" height="50" relative="1" as="geometry">
            <mxPoint x="215" y="270" as="sourcePoint" />
            <mxPoint x="310" y="310" as="targetPoint" />
            <Array as="points">
              <mxPoint x="215" y="310" />
              <mxPoint x="550" y="310" />
              <mxPoint x="550" y="590" />
              <mxPoint x="90" y="590" />
            </Array>
          </mxGeometry>
        </mxCell>
        <mxCell id="Gj7JsDhDFi42uOvpA1KM-3" value="" style="endArrow=classic;html=1;rounded=0;entryX=0.635;entryY=1.086;entryDx=0;entryDy=0;exitX=0.286;exitY=1;exitDx=0;exitDy=0;entryPerimeter=0;exitPerimeter=0;" parent="1" source="Lao-rUgw4XaIn2fH0C6R-69" target="Lao-rUgw4XaIn2fH0C6R-21" edge="1">
          <mxGeometry width="50" height="50" relative="1" as="geometry">
            <mxPoint x="160" y="570" as="sourcePoint" />
            <mxPoint x="210" y="520" as="targetPoint" />
            <Array as="points">
              <mxPoint x="100" y="710" />
              <mxPoint x="50" y="710" />
              <mxPoint x="50" y="500" />
              <mxPoint x="100" y="500" />
            </Array>
          </mxGeometry>
        </mxCell>
        <mxCell id="Gj7JsDhDFi42uOvpA1KM-4" value="" style="endArrow=classic;html=1;rounded=0;entryX=0.75;entryY=1;entryDx=0;entryDy=0;exitX=0.25;exitY=1;exitDx=0;exitDy=0;" parent="1" source="Lao-rUgw4XaIn2fH0C6R-70" target="Lao-rUgw4XaIn2fH0C6R-36" edge="1">
          <mxGeometry width="50" height="50" relative="1" as="geometry">
            <mxPoint x="170" y="710" as="sourcePoint" />
            <mxPoint x="220" y="660" as="targetPoint" />
            <Array as="points">
              <mxPoint x="183" y="720" />
              <mxPoint x="300" y="720" />
              <mxPoint x="300" y="660" />
              <mxPoint x="125" y="660" />
            </Array>
          </mxGeometry>
        </mxCell>
        <mxCell id="Gj7JsDhDFi42uOvpA1KM-5" value="" style="endArrow=classic;html=1;rounded=0;entryX=0.309;entryY=1.082;entryDx=0;entryDy=0;exitX=0.25;exitY=1;exitDx=0;exitDy=0;entryPerimeter=0;" parent="1" source="Lao-rUgw4XaIn2fH0C6R-52" target="Lao-rUgw4XaIn2fH0C6R-21" edge="1">
          <mxGeometry width="50" height="50" relative="1" as="geometry">
            <mxPoint x="130" y="580" as="sourcePoint" />
            <mxPoint x="180" y="530" as="targetPoint" />
            <Array as="points">
              <mxPoint x="100" y="800" />
              <mxPoint x="40" y="800" />
              <mxPoint x="40" y="490" />
              <mxPoint x="90" y="490" />
            </Array>
          </mxGeometry>
        </mxCell>
        <mxCell id="Gj7JsDhDFi42uOvpA1KM-6" value="" style="endArrow=classic;html=1;rounded=0;entryX=0.5;entryY=1;entryDx=0;entryDy=0;exitX=0.25;exitY=1;exitDx=0;exitDy=0;" parent="1" source="Lao-rUgw4XaIn2fH0C6R-41" target="Lao-rUgw4XaIn2fH0C6R-12" edge="1">
          <mxGeometry width="50" height="50" relative="1" as="geometry">
            <mxPoint x="160" y="390" as="sourcePoint" />
            <mxPoint x="87.5" y="270" as="targetPoint" />
            <Array as="points">
              <mxPoint x="90" y="410" />
              <mxPoint x="60" y="410" />
              <mxPoint x="60" y="340" />
              <mxPoint x="95" y="340" />
            </Array>
          </mxGeometry>
        </mxCell>
        <mxCell id="Gj7JsDhDFi42uOvpA1KM-7" value="" style="endArrow=classic;html=1;rounded=0;entryX=0.368;entryY=0.94;entryDx=0;entryDy=0;exitX=0.75;exitY=1;exitDx=0;exitDy=0;entryPerimeter=0;" parent="1" source="Lao-rUgw4XaIn2fH0C6R-42" target="Lao-rUgw4XaIn2fH0C6R-15" edge="1">
          <mxGeometry width="50" height="50" relative="1" as="geometry">
            <mxPoint x="240" y="390" as="sourcePoint" />
            <mxPoint x="535" y="270" as="targetPoint" />
            <Array as="points">
              <mxPoint x="195" y="410" />
              <mxPoint x="560" y="410" />
            </Array>
          </mxGeometry>
        </mxCell>
        <mxCell id="Gj7JsDhDFi42uOvpA1KM-8" value="" style="endArrow=classic;html=1;rounded=0;entryX=0.919;entryY=1.039;entryDx=0;entryDy=0;exitX=0.25;exitY=1;exitDx=0;exitDy=0;entryPerimeter=0;" parent="1" source="Lao-rUgw4XaIn2fH0C6R-79" target="Lao-rUgw4XaIn2fH0C6R-12" edge="1">
          <mxGeometry width="50" height="50" relative="1" as="geometry">
            <mxPoint x="347.5" y="270" as="sourcePoint" />
            <mxPoint x="108.61999999999989" y="270.1199999999999" as="targetPoint" />
            <Array as="points">
              <mxPoint x="363" y="300" />
              <mxPoint x="110" y="300" />
            </Array>
          </mxGeometry>
        </mxCell>
        <mxCell id="Gj7JsDhDFi42uOvpA1KM-10" value="id" style="rounded=0;whiteSpace=wrap;html=1;fontSize=10;fontStyle=4" parent="1" vertex="1">
          <mxGeometry x="81" y="150" width="30" height="20" as="geometry" />
        </mxCell>
        <mxCell id="Gj7JsDhDFi42uOvpA1KM-11" value="dia_folga" style="rounded=0;whiteSpace=wrap;html=1;fontSize=10;fontStyle=0" parent="1" vertex="1">
          <mxGeometry x="110.5" y="150" width="58" height="20" as="geometry" />
        </mxCell>
        <mxCell id="Gj7JsDhDFi42uOvpA1KM-12" value="h_entrada" style="rounded=0;whiteSpace=wrap;html=1;fontSize=10;fontStyle=0" parent="1" vertex="1">
          <mxGeometry x="168.5" y="150" width="58" height="20" as="geometry" />
        </mxCell>
        <mxCell id="Gj7JsDhDFi42uOvpA1KM-13" value="h_saída" style="rounded=0;whiteSpace=wrap;html=1;fontSize=10;fontStyle=0" parent="1" vertex="1">
          <mxGeometry x="226.5" y="150" width="58" height="20" as="geometry" />
        </mxCell>
        <mxCell id="Gj7JsDhDFi42uOvpA1KM-14" value="id_horário" style="rounded=0;whiteSpace=wrap;html=1;fontSize=10;fontStyle=4" parent="1" vertex="1">
          <mxGeometry x="270" y="250" width="50" height="20" as="geometry" />
        </mxCell>
        <mxCell id="Gj7JsDhDFi42uOvpA1KM-15" value="Horário" style="text;strokeColor=none;align=center;fillColor=none;html=1;verticalAlign=middle;whiteSpace=wrap;rounded=0;fontSize=10;" parent="1" vertex="1">
          <mxGeometry x="82" y="130" width="30" height="20" as="geometry" />
        </mxCell>
        <mxCell id="Gj7JsDhDFi42uOvpA1KM-16" value="" style="endArrow=classic;html=1;rounded=0;entryX=0.5;entryY=1;entryDx=0;entryDy=0;exitX=0.5;exitY=1;exitDx=0;exitDy=0;" parent="1" source="Gj7JsDhDFi42uOvpA1KM-14" target="Gj7JsDhDFi42uOvpA1KM-10" edge="1">
          <mxGeometry width="50" height="50" relative="1" as="geometry">
            <mxPoint x="190" y="210" as="sourcePoint" />
            <mxPoint x="240" y="160" as="targetPoint" />
            <Array as="points">
              <mxPoint x="295" y="290" />
              <mxPoint x="330" y="290" />
              <mxPoint x="330" y="210" />
              <mxPoint x="96" y="210" />
            </Array>
          </mxGeometry>
        </mxCell>
        <mxCell id="Gj7JsDhDFi42uOvpA1KM-17" value="" style="endArrow=classic;html=1;rounded=0;exitX=0.25;exitY=1;exitDx=0;exitDy=0;entryX=0.141;entryY=1.031;entryDx=0;entryDy=0;entryPerimeter=0;" parent="1" source="Lao-rUgw4XaIn2fH0C6R-47" target="Lao-rUgw4XaIn2fH0C6R-12" edge="1">
          <mxGeometry width="50" height="50" relative="1" as="geometry">
            <mxPoint x="190" y="610" as="sourcePoint" />
            <mxPoint x="60" y="280" as="targetPoint" />
            <Array as="points">
              <mxPoint x="101" y="910" />
              <mxPoint x="30" y="910" />
              <mxPoint x="30" y="310" />
              <mxPoint x="84" y="310" />
            </Array>
          </mxGeometry>
        </mxCell>
        <mxCell id="Gj7JsDhDFi42uOvpA1KM-18" value="" style="endArrow=classic;html=1;rounded=0;entryX=0.75;entryY=1;entryDx=0;entryDy=0;exitX=0.5;exitY=1;exitDx=0;exitDy=0;" parent="1" source="Lao-rUgw4XaIn2fH0C6R-48" target="Lao-rUgw4XaIn2fH0C6R-15" edge="1">
          <mxGeometry width="50" height="50" relative="1" as="geometry">
            <mxPoint x="270" y="570" as="sourcePoint" />
            <mxPoint x="320" y="520" as="targetPoint" />
            <Array as="points">
              <mxPoint x="191" y="910" />
              <mxPoint x="480" y="910" />
              <mxPoint x="480" y="660" />
              <mxPoint x="573" y="660" />
            </Array>
          </mxGeometry>
        </mxCell>
        <mxCell id="Gj7JsDhDFi42uOvpA1KM-19" value="" style="endArrow=classic;html=1;rounded=0;entryX=0.25;entryY=1;entryDx=0;entryDy=0;exitX=0.25;exitY=1;exitDx=0;exitDy=0;" parent="1" source="Lao-rUgw4XaIn2fH0C6R-78" target="Lao-rUgw4XaIn2fH0C6R-50" edge="1">
          <mxGeometry width="50" height="50" relative="1" as="geometry">
            <mxPoint x="280" y="1040" as="sourcePoint" />
            <mxPoint x="330" y="990" as="targetPoint" />
            <Array as="points">
              <mxPoint x="102" y="990" />
              <mxPoint x="60" y="990" />
              <mxPoint x="60" y="920" />
              <mxPoint x="240" y="920" />
            </Array>
          </mxGeometry>
        </mxCell>
        <mxCell id="Gj7JsDhDFi42uOvpA1KM-20" value="" style="endArrow=classic;html=1;rounded=0;entryX=0.25;entryY=1;entryDx=0;entryDy=0;exitX=0.25;exitY=1;exitDx=0;exitDy=0;" parent="1" source="Lao-rUgw4XaIn2fH0C6R-74" target="Lao-rUgw4XaIn2fH0C6R-59" edge="1">
          <mxGeometry width="50" height="50" relative="1" as="geometry">
            <mxPoint x="290" y="1060" as="sourcePoint" />
            <mxPoint x="340" y="1010" as="targetPoint" />
            <Array as="points">
              <mxPoint x="312" y="990" />
              <mxPoint x="360" y="990" />
              <mxPoint x="458" y="990" />
              <mxPoint x="518" y="990" />
            </Array>
          </mxGeometry>
        </mxCell>
        <mxCell id="Gj7JsDhDFi42uOvpA1KM-21" value="" style="endArrow=classic;html=1;rounded=0;entryX=0.25;entryY=1;entryDx=0;entryDy=0;exitX=0.5;exitY=1;exitDx=0;exitDy=0;" parent="1" source="Lao-rUgw4XaIn2fH0C6R-75" target="Lao-rUgw4XaIn2fH0C6R-60" edge="1">
          <mxGeometry width="50" height="50" relative="1" as="geometry">
            <mxPoint x="290" y="1060" as="sourcePoint" />
            <mxPoint x="340" y="1010" as="targetPoint" />
            <Array as="points">
              <mxPoint x="407" y="1000" />
              <mxPoint x="500" y="1000" />
              <mxPoint x="500" y="900" />
              <mxPoint x="555" y="900" />
            </Array>
          </mxGeometry>
        </mxCell>
        <mxCell id="oqL41ZWVpm5SVX1pb3kf-1" value="sexo" style="rounded=0;whiteSpace=wrap;html=1;fontSize=10;fontStyle=4" parent="1" vertex="1">
          <mxGeometry x="640" y="950" width="30" height="20" as="geometry" />
        </mxCell>
        <mxCell id="oqL41ZWVpm5SVX1pb3kf-2" value="designação" style="rounded=0;whiteSpace=wrap;html=1;fontSize=10;fontStyle=4" parent="1" vertex="1">
          <mxGeometry x="670" y="950" width="60" height="20" as="geometry" />
        </mxCell>
        <mxCell id="oqL41ZWVpm5SVX1pb3kf-3" value="" style="endArrow=classic;html=1;rounded=0;entryX=0.75;entryY=1;entryDx=0;entryDy=0;exitX=0.25;exitY=1;exitDx=0;exitDy=0;" parent="1" source="oqL41ZWVpm5SVX1pb3kf-2" target="Lao-rUgw4XaIn2fH0C6R-60" edge="1">
          <mxGeometry width="50" height="50" relative="1" as="geometry">
            <mxPoint x="580" y="930" as="sourcePoint" />
            <mxPoint x="630" y="880" as="targetPoint" />
            <Array as="points">
              <mxPoint x="685" y="990" />
              <mxPoint x="740" y="990" />
              <mxPoint x="740" y="900" />
              <mxPoint x="585" y="900" />
            </Array>
          </mxGeometry>
        </mxCell>
        <mxCell id="oqL41ZWVpm5SVX1pb3kf-4" value="" style="endArrow=classic;html=1;rounded=0;entryX=0.5;entryY=1;entryDx=0;entryDy=0;exitX=0.5;exitY=1;exitDx=0;exitDy=0;" parent="1" source="oqL41ZWVpm5SVX1pb3kf-1" target="Lao-rUgw4XaIn2fH0C6R-59" edge="1">
          <mxGeometry width="50" height="50" relative="1" as="geometry">
            <mxPoint x="580" y="930" as="sourcePoint" />
            <mxPoint x="630" y="880" as="targetPoint" />
            <Array as="points">
              <mxPoint x="655" y="990" />
              <mxPoint x="525" y="990" />
            </Array>
          </mxGeometry>
        </mxCell>
        <mxCell id="XFtOWB0AhVFB6bI5bPxL-1" value="nif_funcionário" style="rounded=0;whiteSpace=wrap;html=1;fontSize=10;fontStyle=4" vertex="1" parent="1">
          <mxGeometry x="161.5" y="950" width="80" height="20" as="geometry" />
        </mxCell>
        <mxCell id="XFtOWB0AhVFB6bI5bPxL-3" value="nif_cliente" style="rounded=0;whiteSpace=wrap;html=1;fontSize=10;fontStyle=4" vertex="1" parent="1">
          <mxGeometry x="241.5" y="950" width="60" height="20" as="geometry" />
        </mxCell>
        <mxCell id="XFtOWB0AhVFB6bI5bPxL-5" value="" style="endArrow=classic;html=1;rounded=0;exitX=0.25;exitY=1;exitDx=0;exitDy=0;entryX=0.75;entryY=1;entryDx=0;entryDy=0;" edge="1" parent="1" source="XFtOWB0AhVFB6bI5bPxL-3" target="Lao-rUgw4XaIn2fH0C6R-48">
          <mxGeometry width="50" height="50" relative="1" as="geometry">
            <mxPoint x="350" y="900" as="sourcePoint" />
            <mxPoint x="400" y="850" as="targetPoint" />
            <Array as="points">
              <mxPoint x="257" y="1010" />
              <mxPoint x="480" y="1010" />
              <mxPoint x="480" y="930" />
              <mxPoint x="206" y="930" />
            </Array>
          </mxGeometry>
        </mxCell>
        <mxCell id="XFtOWB0AhVFB6bI5bPxL-6" value="" style="endArrow=classic;html=1;rounded=0;entryX=0.5;entryY=1;entryDx=0;entryDy=0;exitX=0.25;exitY=1;exitDx=0;exitDy=0;" edge="1" parent="1" source="XFtOWB0AhVFB6bI5bPxL-1" target="Lao-rUgw4XaIn2fH0C6R-47">
          <mxGeometry width="50" height="50" relative="1" as="geometry">
            <mxPoint x="350" y="900" as="sourcePoint" />
            <mxPoint x="400" y="850" as="targetPoint" />
            <Array as="points">
              <mxPoint x="182" y="1010" />
              <mxPoint x="40" y="1010" />
              <mxPoint x="40" y="900" />
              <mxPoint x="121" y="900" />
            </Array>
          </mxGeometry>
        </mxCell>
      </root>
    </mxGraphModel>
  </diagram>
</mxfile>
